<?xml version="1.0" encoding="UTF-8"?>
<svg width="1200" height="300" viewBox="0 0 1200 300" xmlns="http://www.w3.org/2000/svg">
  <!-- Fiori stilizzati per il footer -->
  
  <!-- Fiore 1 - Rosa -->
  <g transform="translate(100,150)">
    <circle cx="0" cy="0" r="20" fill="#c11749" opacity="0.8"/>
    <circle cx="-15" cy="-10" r="15" fill="#a11740" opacity="0.9"/>
    <circle cx="15" cy="-10" r="15" fill="#a11740" opacity="0.9"/>
    <circle cx="-10" cy="15" r="15" fill="#9b163d" opacity="0.9"/>
    <circle cx="10" cy="15" r="15" fill="#9b163d" opacity="0.9"/>
    <circle cx="0" cy="0" r="8" fill="#b11b4f"/>
    <path d="M0,20 Q-5,35 -15,45 Q0,50 15,45 Q5,35 0,20" fill="#48531f"/>
    <ellipse cx="-8" cy="25" rx="6" ry="3" fill="#67633e"/>
    <ellipse cx="8" cy="30" rx="6" ry="3" fill="#67633e"/>
  </g>
  
  <!-- Fiore 2 - Viola -->
  <g transform="translate(300,180)">
    <circle cx="0" cy="0" r="18" fill="#891532" opacity="0.8"/>
    <circle cx="-12" cy="-8" r="12" fill="#811430" opacity="0.9"/>
    <circle cx="12" cy="-8" r="12" fill="#811430" opacity="0.9"/>
    <circle cx="-8" cy="12" r="12" fill="#761229" opacity="0.9"/>
    <circle cx="8" cy="12" r="12" fill="#761229" opacity="0.9"/>
    <circle cx="0" cy="0" r="6" fill="#c4215b"/>
    <path d="M0,18 Q-3,30 -12,38 Q0,42 12,38 Q3,30 0,18" fill="#2d2e1a"/>
    <ellipse cx="-6" cy="22" rx="5" ry="2" fill="#302c17"/>
    <ellipse cx="6" cy="26" rx="5" ry="2" fill="#302c17"/>
  </g>
  
  <!-- Fiore 3 - Grande centrale -->
  <g transform="translate(600,140)">
    <circle cx="0" cy="0" r="25" fill="#b11b4f" opacity="0.7"/>
    <circle cx="-18" cy="-12" r="18" fill="#a11740" opacity="0.8"/>
    <circle cx="18" cy="-12" r="18" fill="#a11740" opacity="0.8"/>
    <circle cx="-12" cy="18" r="18" fill="#9b163d" opacity="0.8"/>
    <circle cx="12" cy="18" r="18" fill="#9b163d" opacity="0.8"/>
    <circle cx="0" cy="0" r="12" fill="#c11749"/>
    <path d="M0,25 Q-8,45 -20,55 Q0,62 20,55 Q8,45 0,25" fill="#48531f"/>
    <ellipse cx="-12" cy="32" rx="8" ry="4" fill="#67633e"/>
    <ellipse cx="12" cy="38" rx="8" ry="4" fill="#67633e"/>
    <ellipse cx="0" cy="35" rx="6" ry="3" fill="#2d2e1a"/>
  </g>
  
  <!-- Fiore 4 - Piccolo -->
  <g transform="translate(900,160)">
    <circle cx="0" cy="0" r="15" fill="#9b163d" opacity="0.8"/>
    <circle cx="-10" cy="-7" r="10" fill="#891532" opacity="0.9"/>
    <circle cx="10" cy="-7" r="10" fill="#891532" opacity="0.9"/>
    <circle cx="-7" cy="10" r="10" fill="#811430" opacity="0.9"/>
    <circle cx="7" cy="10" r="10" fill="#811430" opacity="0.9"/>
    <circle cx="0" cy="0" r="5" fill="#c4215b"/>
    <path d="M0,15 Q-2,25 -10,32 Q0,35 10,32 Q2,25 0,15" fill="#302c17"/>
    <ellipse cx="-5" cy="18" rx="4" ry="2" fill="#2d2e1a"/>
    <ellipse cx="5" cy="22" rx="4" ry="2" fill="#2d2e1a"/>
  </g>
  
  <!-- Foglie decorative -->
  <ellipse cx="200" cy="220" rx="25" ry="8" fill="#48531f" opacity="0.6" transform="rotate(25 200 220)"/>
  <ellipse cx="400" cy="240" rx="30" ry="10" fill="#67633e" opacity="0.5" transform="rotate(-15 400 240)"/>
  <ellipse cx="800" cy="230" rx="28" ry="9" fill="#302c17" opacity="0.4" transform="rotate(35 800 230)"/>
  <ellipse cx="1000" cy="250" rx="22" ry="7" fill="#2d2e1a" opacity="0.5" transform="rotate(-25 1000 250)"/>
  
  <!-- Elementi decorativi aggiuntivi -->
  <circle cx="150" cy="100" r="4" fill="#c11749" opacity="0.6"/>
  <circle cx="750" cy="80" r="3" fill="#9b163d" opacity="0.7"/>
  <circle cx="450" cy="90" r="5" fill="#a11740" opacity="0.5"/>
  <circle cx="1050" cy="110" r="4" fill="#b11b4f" opacity="0.6"/>
</svg>
